999
dxfrw 0.5.11
0
SECTION
2
HEADER
9
$ACADVER
1
AC1021
9
$HANDSEED
5
20000
9
$DWGCODEPAGE
3
ANSI_1252
9
$INSBASE
10
0
20
0
30
0
9
$EXTMIN
10
203.4375
20
93.75
30
0
9
$EXTMAX
10
1210.4375
20
1175.75
30
0
9
$LIMMIN
10
0
20
0
9
$LIMMAX
10
420
20
297
9
$ORTHOMODE
70
0
9
$LTSCALE
40
1
9
$TEXTSTYLE
7
STANDARD
9
$CLAYER
8
0
9
$DIMASZ
40
2.5
9
$DIMLFAC
40
1
9
$DIMSCALE
40
1
9
$DIMEXO
40
0.625
9
$DIMEXE
40
1.25
9
$DIMTXT
40
2.5
9
$DIMTSZ
40
0
9
$DIMAUNIT
70
0
9
$DIMADEC
70
0
9
$DIMLUNIT
70
2
9
$DIMSTYLE
2
STANDARD
9
$DIMGAP
40
0.625
9
$DIMTIH
70
0
9
$LUNITS
70
2
9
$LUPREC
70
4
9
$AUNITS
70
0
9
$AUPREC
70
2
9
$SPLINESEGS
70
8
9
$GRIDMODE
70
1
9
$SNAPSTYLE
70
0
9
$PINSBASE
10
0
20
0
30
0
9
$PLIMMIN
10
0
20
0
9
$PLIMMAX
10
210
20
297
9
$INSUNITS
70
4
9
$PSVPSCALE
40
1
0
ENDSEC
0
SECTION
2
CLASSES
0
ENDSEC
0
SECTION
2
TABLES
0
TABLE
2
VPORT
5
8
330
0
100
AcDbSymbolTable
70
1
0
VPORT
5
31
330
2
100
AcDbSymbolTableRecord
100
AcDbViewportTableRecord
2
*ACTIVE
70
0
10
0
20
0
11
1
21
1
12
541.015625
22
411.376953125
13
0
23
0
14
10
24
10
15
10
25
10
16
0
26
0
36
1
17
0
27
0
37
0
40
371.58203125
41
2.05519053876
42
50
43
0
44
0
50
0
51
0
71
0
72
100
73
1
74
3
75
0
76
1
77
0
78
0
281
0
65
1
110
0
120
0
130
0
111
1
121
0
131
0
112
0
122
1
132
0
79
0
146
0
348
10020
60
7
61
5
292
1
282
1
141
0
142
0
63
250
421
3358443
0
ENDTAB
0
TABLE
2
LTYPE
5
5
330
0
100
AcDbSymbolTable
70
4
0
LTYPE
5
14
330
5
100
AcDbSymbolTableRecord
100
AcDbLinetypeTableRecord
2
ByBlock
70
0
3

72
65
73
0
40
0
0
LTYPE
5
15
330
5
100
AcDbSymbolTableRecord
100
AcDbLinetypeTableRecord
2
ByLayer
70
0
3

72
65
73
0
40
0
0
LTYPE
5
16
330
5
100
AcDbSymbolTableRecord
100
AcDbLinetypeTableRecord
2
Continuous
70
0
3
Solid line
72
65
73
0
40
0
0
LTYPE
5
32
330
5
100
AcDbSymbolTableRecord
100
AcDbLinetypeTableRecord
2
DOT
70
0
3
Dot . . . . . . . . . . . . . . . . . . . . . .
72
65
73
2
40
6.35
49
0
74
0
49
-6.35
74
0
0
LTYPE
5
33
330
5
100
AcDbSymbolTableRecord
100
AcDbLinetypeTableRecord
2
DOT2
70
0
3
Dot (.5x) .....................................
72
65
73
2
40
3.175
49
0
74
0
49
-3.175
74
0
0
LTYPE
5
34
330
5
100
AcDbSymbolTableRecord
100
AcDbLinetypeTableRecord
2
DOTX2
70
0
3
Dot (2x) .  .  .  .  .  .  .  .  .  .  .  .  .
72
65
73
2
40
12.7
49
0
74
0
49
-12.7
74
0
0
LTYPE
5
35
330
5
100
AcDbSymbolTableRecord
100
AcDbLinetypeTableRecord
2
DASHED
70
0
3
Dot . . . . . . . . . . . . . . . . . . . . . .
72
65
73
2
40
19.05
49
12.7
74
0
49
-6.35
74
0
0
LTYPE
5
36
330
5
100
AcDbSymbolTableRecord
100
AcDbLinetypeTableRecord
2
DASHED2
70
0
3
Dashed (.5x) _ _ _ _ _ _ _ _ _ _ _ _ _ _ _ _ _
72
65
73
2
40
9.525
49
6.35
74
0
49
-3.175
74
0
0
LTYPE
5
37
330
5
100
AcDbSymbolTableRecord
100
AcDbLinetypeTableRecord
2
DASHEDX2
70
0
3
Dashed (2x) ____  ____  ____  ____  ____  ___
72
65
73
2
40
38.1
49
25.4
74
0
49
-12.7
74
0
0
LTYPE
5
38
330
5
100
AcDbSymbolTableRecord
100
AcDbLinetypeTableRecord
2
DASHDOT
70
0
3
Dash dot __ . __ . __ . __ . __ . __ . __ . __
72
65
73
4
40
25.4
49
12.7
74
0
49
-6.35
74
0
49
0
74
0
49
-6.35
74
0
0
LTYPE
5
39
330
5
100
AcDbSymbolTableRecord
100
AcDbLinetypeTableRecord
2
DASHDOT2
70
0
3
Dash dot (.5x) _._._._._._._._._._._._._._._.
72
65
73
4
40
12.7
49
6.35
74
0
49
-3.175
74
0
49
0
74
0
49
-3.175
74
0
0
LTYPE
5
3A
330
5
100
AcDbSymbolTableRecord
100
AcDbLinetypeTableRecord
2
DASHDOTX2
70
0
3
Dash dot (2x) ____  .  ____  .  ____  .  ___
72
65
73
4
40
50.8
49
25.4
74
0
49
-12.7
74
0
49
0
74
0
49
-12.7
74
0
0
LTYPE
5
3B
330
5
100
AcDbSymbolTableRecord
100
AcDbLinetypeTableRecord
2
DIVIDE
70
0
3
Divide ____ . . ____ . . ____ . . ____ . . ____
72
65
73
6
40
31.75
49
12.7
74
0
49
-6.35
74
0
49
0
74
0
49
-6.35
74
0
49
0
74
0
49
-6.35
74
0
0
LTYPE
5
3C
330
5
100
AcDbSymbolTableRecord
100
AcDbLinetypeTableRecord
2
DIVIDE2
70
0
3
Divide (.5x) __..__..__..__..__..__..__..__.._
72
65
73
6
40
15.875
49
6.35
74
0
49
-3.175
74
0
49
0
74
0
49
-3.175
74
0
49
0
74
0
49
-3.175
74
0
0
LTYPE
5
3D
330
5
100
AcDbSymbolTableRecord
100
AcDbLinetypeTableRecord
2
DIVIDEX2
70
0
3
Divide (2x) ________  .  .  ________  .  .  _
72
65
73
6
40
63.5
49
25.4
74
0
49
-12.7
74
0
49
0
74
0
49
-12.7
74
0
49
0
74
0
49
-12.7
74
0
0
LTYPE
5
3E
330
5
100
AcDbSymbolTableRecord
100
AcDbLinetypeTableRecord
2
BORDER
70
0
3
Border __ __ . __ __ . __ __ . __ __ . __ __ .
72
65
73
6
40
44.45
49
12.7
74
0
49
-6.35
74
0
49
12.7
74
0
49
-6.35
74
0
49
0
74
0
49
-6.35
74
0
0
LTYPE
5
3F
330
5
100
AcDbSymbolTableRecord
100
AcDbLinetypeTableRecord
2
BORDER2
70
0
3
Border (.5x) __.__.__.__.__.__.__.__.__.__.__.
72
65
73
6
40
22.225
49
6.35
74
0
49
-3.175
74
0
49
6.35
74
0
49
-3.175
74
0
49
0
74
0
49
-3.175
74
0
0
LTYPE
5
40
330
5
100
AcDbSymbolTableRecord
100
AcDbLinetypeTableRecord
2
BORDERX2
70
0
3
Border (2x) ____  ____  .  ____  ____  .  ___
72
65
73
6
40
88.9
49
25.4
74
0
49
-12.7
74
0
49
25.4
74
0
49
-12.7
74
0
49
0
74
0
49
-12.7
74
0
0
LTYPE
5
41
330
5
100
AcDbSymbolTableRecord
100
AcDbLinetypeTableRecord
2
CENTER
70
0
3
Center ____ _ ____ _ ____ _ ____ _ ____ _ ____
72
65
73
4
40
50.8
49
31.75
74
0
49
-6.35
74
0
49
6.35
74
0
49
-6.35
74
0
0
LTYPE
5
42
330
5
100
AcDbSymbolTableRecord
100
AcDbLinetypeTableRecord
2
CENTER2
70
0
3
Center (.5x) ___ _ ___ _ ___ _ ___ _ ___ _ ___
72
65
73
4
40
28.575
49
19.05
74
0
49
-3.175
74
0
49
3.175
74
0
49
-3.175
74
0
0
LTYPE
5
43
330
5
100
AcDbSymbolTableRecord
100
AcDbLinetypeTableRecord
2
CENTERX2
70
0
3
Center (2x) ________  __  ________  __  _____
72
65
73
4
40
101.6
49
63.5
74
0
49
-12.7
74
0
49
12.7
74
0
49
-12.7
74
0
0
ENDTAB
0
TABLE
2
LAYER
5
2
330
0
100
AcDbSymbolTable
70
1
0
LAYER
5
10
330
2
100
AcDbSymbolTableRecord
100
AcDbLayerTableRecord
2
0
70
0
62
7
6
CONTINUOUS
370
0
390
F
0
LAYER
5
44
330
2
100
AcDbSymbolTableRecord
100
AcDbLayerTableRecord
2
features
70
0
62
7
6
CONTINUOUS
370
0
390
F
0
LAYER
5
45
330
2
100
AcDbSymbolTableRecord
100
AcDbLayerTableRecord
2
roadways
70
0
62
7
6
CONTINUOUS
370
20
390
F
0
LAYER
5
46
330
2
100
AcDbSymbolTableRecord
100
AcDbLayerTableRecord
2
zone
70
4
62
7
6
CONTINUOUS
370
50
390
F
0
ENDTAB
0
TABLE
2
STYLE
5
3
330
0
100
AcDbSymbolTable
70
3
0
STYLE
5
47
330
2
100
AcDbSymbolTableRecord
100
AcDbTextStyleTableRecord
2
romans
70
0
40
0
41
1
50
0
71
0
42
1
3
romans
4

0
STYLE
5
48
330
2
100
AcDbSymbolTableRecord
100
AcDbTextStyleTableRecord
2
Standard
70
0
40
0
41
1
50
0
71
0
42
1
3
txt
4

0
ENDTAB
0
TABLE
2
VIEW
5
6
330
0
100
AcDbSymbolTable
70
0
0
ENDTAB
0
TABLE
2
UCS
5
7
330
0
100
AcDbSymbolTable
70
0
0
ENDTAB
0
TABLE
2
APPID
5
9
330
0
100
AcDbSymbolTable
70
1
0
APPID
5
12
330
9
100
AcDbSymbolTableRecord
100
AcDbRegAppTableRecord
2
ACAD
70
0
0
ENDTAB
0
TABLE
2
DIMSTYLE
5
A
330
0
100
AcDbSymbolTable
70
1
100
AcDbDimStyleTable
71
1
0
DIMSTYLE
105
49
330
A
100
AcDbSymbolTableRecord
100
AcDbDimStyleTableRecord
2
Standard
70
0
40
1
41
2.5
42
0.625
43
0.38
44
1.25
45
0
46
0
47
0
48
0
140
2.5
141
0.09
142
0
143
25.4
144
1
145
0
146
1
147
0.625
148
0
71
0
72
0
73
0
74
1
75
0
76
0
77
0
78
0
79
0
170
0
171
2
172
0
173
0
174
0
175
0
176
0
177
0
178
0
179
0
271
4
272
4
273
2
274
2
275
0
276
0
277
2
278
46
279
0
280
0
281
0
282
0
283
1
284
0
285
0
286
0
288
0
289
3
340
Standard
341

371
-2
372
-2
0
ENDTAB
0
TABLE
2
BLOCK_RECORD
5
1
330
0
100
AcDbSymbolTable
70
2
0
BLOCK_RECORD
5
1F
330
1
100
AcDbSymbolTableRecord
100
AcDbBlockTableRecord
2
*Model_Space
70
0
280
1
281
0
0
BLOCK_RECORD
5
1E
330
1
100
AcDbSymbolTableRecord
100
AcDbBlockTableRecord
2
*Paper_Space
70
0
280
1
281
0
0
ENDTAB
0
ENDSEC
0
SECTION
2
BLOCKS
0
BLOCK
5
20
330
1F
100
AcDbEntity
8
0
100
AcDbBlockBegin
2
*Model_Space
70
0
10
0
20
0
30
0
3
*Model_Space
1

0
ENDBLK
5
21
330
1F
100
AcDbEntity
8
0
100
AcDbBlockEnd
0
BLOCK
5
1C
330
1B
100
AcDbEntity
8
0
100
AcDbBlockBegin
2
*Paper_Space
70
0
10
0
20
0
30
0
3
*Paper_Space
1

0
ENDBLK
5
1D
330
1F
100
AcDbEntity
8
0
100
AcDbBlockEnd
0
ENDSEC
0
SECTION
2
ENTITIES
0
HATCH
5
4A
100
AcDbEntity
8
0
6
ByLayer
62
56
420
8421376
370
90
100
AcDbHatch
10
0
20
0
30
0
210
0
220
0
230
1
2
SOLID
70
1
71
0
91
1
92
0
93
4
72
1
10
811.03515625
20
713.623046875
11
844.7265625
21
713.623046875
72
1
10
844.7265625
20
713.623046875
11
844.7265625
21
668.212890625
72
1
10
844.7265625
20
668.212890625
11
811.03515625
21
668.212890625
72
1
10
811.03515625
20
668.212890625
11
811.03515625
21
713.623046875
97
0
75
0
76
1
98
0
0
IMAGE
5
4D
100
AcDbEntity
8
0
6
ByLayer
62
256
370
-1
100
AcDbRasterImage
10
203.4375
20
93.75
30
0
11
1
21
0
31
0
12
6.12323399574e-17
22
1
32
0
13
1007
23
1082
340
4B
70
1
280
0
281
50
282
50
283
0
360
4C
0
LINE
5
4E
100
AcDbEntity
8
zone
6
CONTINUOUS
62
256
370
50
100
AcDbLine
10
515.25
20
470.5
11
707.51953125
21
502.44140625
0
LINE
5
4F
100
AcDbEntity
8
zone
6
CONTINUOUS
62
256
370
50
100
AcDbLine
10
707.51953125
20
502.44140625
11
708.49609375
21
664.55078125
0
LINE
5
50
100
AcDbEntity
8
zone
6
CONTINUOUS
62
256
370
50
100
AcDbLine
10
708.49609375
20
664.55078125
11
707.51953125
21
781.25
0
LINE
5
51
100
AcDbEntity
8
zone
6
CONTINUOUS
62
256
370
50
100
AcDbLine
10
707.51953125
20
781.25
11
575
21
787.25
0
LINE
5
52
100
AcDbEntity
8
zone
6
CONTINUOUS
62
256
370
50
100
AcDbLine
10
575
20
787.25
11
543.4375
21
651.875
0
LINE
5
53
100
AcDbEntity
8
zone
6
CONTINUOUS
62
256
370
50
100
AcDbLine
10
543.4375
20
651.875
11
529.0625
21
587.1875
0
LINE
5
54
100
AcDbEntity
8
zone
6
CONTINUOUS
62
256
370
50
100
AcDbLine
10
529.0625
20
587.1875
11
515.25
21
470.5
0
LINE
5
55
100
AcDbEntity
8
roadways
6
CONTINUOUS
62
0
370
50
100
AcDbLine
10
520.8
20
517.92
11
537.92
21
530.4
0
LINE
5
56
100
AcDbEntity
8
roadways
6
CONTINUOUS
62
0
370
50
100
AcDbLine
10
537.92
20
530.4
11
554.72
21
544.48
0
LINE
5
57
100
AcDbEntity
8
roadways
6
CONTINUOUS
62
0
370
50
100
AcDbLine
10
554.72
20
544.48
11
567.04
21
563.68
0
LINE
5
58
100
AcDbEntity
8
roadways
6
CONTINUOUS
62
0
370
50
100
AcDbLine
10
567.04
20
563.68
11
581.28
21
572.48
0
LINE
5
59
100
AcDbEntity
8
roadways
6
CONTINUOUS
62
0
370
50
100
AcDbLine
10
581.28
20
572.48
11
586.08
21
581.44
0
LINE
5
5A
100
AcDbEntity
8
roadways
6
CONTINUOUS
62
0
370
50
100
AcDbLine
10
586.08
20
581.44
11
598.88
21
604.16
0
LINE
5
5B
100
AcDbEntity
8
roadways
6
CONTINUOUS
62
0
370
50
100
AcDbLine
10
598.88
20
604.16
11
600.8
21
613.92
0
LINE
5
5C
100
AcDbEntity
8
roadways
6
CONTINUOUS
62
0
370
50
100
AcDbLine
10
600.8
20
613.92
11
601.76
21
631.84
0
LINE
5
5D
100
AcDbEntity
8
roadways
6
CONTINUOUS
62
0
370
50
100
AcDbLine
10
601.76
20
631.84
11
600.96
21
655.68
0
LINE
5
5E
100
AcDbEntity
8
roadways
6
CONTINUOUS
62
0
370
50
100
AcDbLine
10
600.96
20
655.68
11
582.24
21
643.2
0
LINE
5
5F
100
AcDbEntity
8
roadways
6
CONTINUOUS
62
0
370
50
100
AcDbLine
10
582.24
20
643.2
11
565.76
21
635.68
0
LINE
5
60
100
AcDbEntity
8
roadways
6
CONTINUOUS
62
0
370
50
100
AcDbLine
10
565.76
20
635.68
11
537.28
21
625.6
0
LINE
5
61
100
AcDbEntity
8
roadways
6
CONTINUOUS
62
0
370
50
100
AcDbLine
10
599.68
20
661.44
11
579.52
21
648.48
0
LINE
5
62
100
AcDbEntity
8
roadways
6
CONTINUOUS
62
0
370
50
100
AcDbLine
10
579.52
20
648.48
11
561.6
21
640.48
0
LINE
5
63
100
AcDbEntity
8
roadways
6
CONTINUOUS
62
0
370
50
100
AcDbLine
10
561.6
20
640.48
11
538.88
21
632.32
0
LINE
5
64
100
AcDbEntity
8
roadways
6
CONTINUOUS
62
0
370
50
100
AcDbLine
10
570.88
20
770.08
11
581.44
21
773.28
0
LINE
5
65
100
AcDbEntity
8
roadways
6
CONTINUOUS
62
0
370
50
100
AcDbLine
10
581.44
20
773.28
11
595.68
21
776
0
LINE
5
66
100
AcDbEntity
8
roadways
6
CONTINUOUS
62
0
370
50
100
AcDbLine
10
595.68
20
776
11
606.72
21
775.52
0
LINE
5
67
100
AcDbEntity
8
roadways
6
CONTINUOUS
62
0
370
50
100
AcDbLine
10
606.72
20
775.52
11
632.64
21
774.24
0
LINE
5
68
100
AcDbEntity
8
roadways
6
CONTINUOUS
62
0
370
50
100
AcDbLine
10
632.8
20
779.52
11
596.32
21
781.12
0
LINE
5
69
100
AcDbEntity
8
roadways
6
CONTINUOUS
62
0
370
50
100
AcDbLine
10
596.32
20
781.12
11
580.96
21
778.72
0
LINE
5
6A
100
AcDbEntity
8
roadways
6
CONTINUOUS
62
0
370
50
100
AcDbLine
10
580.96
20
778.72
11
572.48
21
776
0
LINE
5
6B
100
AcDbEntity
8
roadways
6
CONTINUOUS
62
0
370
50
100
AcDbLine
10
520
20
509.76
11
541.28
21
525.6
0
LINE
5
6C
100
AcDbEntity
8
roadways
6
CONTINUOUS
62
0
370
50
100
AcDbLine
10
541.28
20
525.6
11
559.68
21
540.96
0
LINE
5
6D
100
AcDbEntity
8
roadways
6
CONTINUOUS
62
0
370
50
100
AcDbLine
10
559.68
20
540.96
11
571.04
21
559.52
0
LINE
5
6E
100
AcDbEntity
8
roadways
6
CONTINUOUS
62
0
370
50
100
AcDbLine
10
571.04
20
559.52
11
582.08
21
566.88
0
LINE
5
6F
100
AcDbEntity
8
roadways
6
CONTINUOUS
62
0
370
50
100
AcDbLine
10
582.08
20
566.88
11
584.96
21
568.8
0
LINE
5
70
100
AcDbEntity
8
roadways
6
CONTINUOUS
62
0
370
50
100
AcDbLine
10
584.96
20
568.8
11
604
21
602.24
0
LINE
5
71
100
AcDbEntity
8
roadways
6
CONTINUOUS
62
0
370
50
100
AcDbLine
10
604
20
602.24
11
606.08
21
613.92
0
LINE
5
72
100
AcDbEntity
8
roadways
6
CONTINUOUS
62
0
370
50
100
AcDbLine
10
606.08
20
613.92
11
607.36
21
634.08
0
LINE
5
73
100
AcDbEntity
8
roadways
6
CONTINUOUS
62
0
370
50
100
AcDbLine
10
607.36
20
634.08
11
607.52
21
657.76
0
LINE
5
74
100
AcDbEntity
8
roadways
6
CONTINUOUS
62
0
370
50
100
AcDbLine
10
607.52
20
657.76
11
625.28
21
668
0
LINE
5
75
100
AcDbEntity
8
roadways
6
CONTINUOUS
62
0
370
50
100
AcDbLine
10
625.28
20
668
11
636.96
21
674.56
0
LINE
5
76
100
AcDbEntity
8
roadways
6
CONTINUOUS
62
0
370
50
100
AcDbLine
10
607.36
20
664.16
11
632
21
677.28
0
LINE
5
77
100
AcDbEntity
8
roadways
6
CONTINUOUS
62
0
370
50
100
AcDbLine
10
636.96
20
674.56
11
645.2
21
661
0
LINE
5
78
100
AcDbEntity
8
roadways
6
CONTINUOUS
62
0
370
50
100
AcDbLine
10
645.2
20
661
11
658.8
21
641.4
0
LINE
5
79
100
AcDbEntity
8
roadways
6
CONTINUOUS
62
0
370
50
100
AcDbLine
10
658.8
20
641.4
11
662.2
21
635.6
0
LINE
5
7A
100
AcDbEntity
8
roadways
6
CONTINUOUS
62
0
370
50
100
AcDbLine
10
645.8
20
677.6
11
645.4
21
673.2
0
LINE
5
7B
100
AcDbEntity
8
roadways
6
CONTINUOUS
62
0
370
50
100
AcDbLine
10
645.4
20
673.2
11
647.8
21
667.6
0
LINE
5
7C
100
AcDbEntity
8
roadways
6
CONTINUOUS
62
0
370
50
100
AcDbLine
10
647.8
20
667.6
11
657.4
21
654.6
0
LINE
5
7D
100
AcDbEntity
8
roadways
6
CONTINUOUS
62
0
370
50
100
AcDbLine
10
657.4
20
654.6
11
667.6
21
638.6
0
LINE
5
7E
100
AcDbEntity
8
roadways
6
CONTINUOUS
62
0
370
50
100
AcDbLine
10
632
20
677.28
11
638.848
21
684.928
0
LINE
5
7F
100
AcDbEntity
8
roadways
6
CONTINUOUS
62
0
370
50
100
AcDbLine
10
638.848
20
684.928
11
637.952
21
708.352
0
LINE
5
80
100
AcDbEntity
8
roadways
6
CONTINUOUS
62
0
370
50
100
AcDbLine
10
637.952
20
708.352
11
645.12
21
721.28
0
LINE
5
81
100
AcDbEntity
8
roadways
6
CONTINUOUS
62
0
370
50
100
AcDbLine
10
645.12
20
721.28
11
645.888
21
750.592
0
LINE
5
82
100
AcDbEntity
8
roadways
6
CONTINUOUS
62
0
370
50
100
AcDbLine
10
645.888
20
750.592
11
632.64
21
774.24
0
LINE
5
83
100
AcDbEntity
8
roadways
6
CONTINUOUS
62
0
370
50
100
AcDbLine
10
639.616
20
774.528
11
652.288
21
751.744
0
LINE
5
84
100
AcDbEntity
8
roadways
6
CONTINUOUS
62
0
370
50
100
AcDbLine
10
652.288
20
751.744
11
652.032
21
721.536
0
LINE
5
85
100
AcDbEntity
8
roadways
6
CONTINUOUS
62
0
370
50
100
AcDbLine
10
652.032
20
721.536
11
645.888
21
708.096
0
LINE
5
86
100
AcDbEntity
8
roadways
6
CONTINUOUS
62
0
370
50
100
AcDbLine
10
645.888
20
708.096
11
646.144
21
683.904
0
LINE
5
87
100
AcDbEntity
8
roadways
6
CONTINUOUS
62
0
370
50
100
AcDbLine
10
599.68
20
661.44
11
596.2
21
692.6
0
LINE
5
88
100
AcDbEntity
8
roadways
6
CONTINUOUS
62
0
370
50
100
AcDbLine
10
607.36
20
664.16
11
604
21
693
0
LINE
5
89
100
AcDbEntity
8
roadways
6
CONTINUOUS
62
0
370
50
100
AcDbLine
10
646.144
20
683.904
11
655.36
21
683.904
0
LINE
5
8A
100
AcDbEntity
8
roadways
6
CONTINUOUS
62
0
370
50
100
AcDbLine
10
655.36
20
683.904
11
665.088
21
683.136
0
LINE
5
8B
100
AcDbEntity
8
roadways
6
CONTINUOUS
62
0
370
50
100
AcDbLine
10
665.088
20
683.136
11
678.784
21
681.088
0
LINE
5
8C
100
AcDbEntity
8
roadways
6
CONTINUOUS
62
0
370
50
100
AcDbLine
10
678.784
20
681.088
11
685.696
21
680.448
0
LINE
5
8D
100
AcDbEntity
8
roadways
6
CONTINUOUS
62
0
370
50
100
AcDbLine
10
684.8
20
674.176
11
668.8
21
677.376
0
LINE
5
8E
100
AcDbEntity
8
roadways
6
CONTINUOUS
62
0
370
50
100
AcDbLine
10
668.8
20
677.376
11
658.688
21
678.656
0
LINE
5
8F
100
AcDbEntity
8
roadways
6
CONTINUOUS
62
0
370
50
100
AcDbLine
10
658.688
20
678.656
11
648.448
21
678.784
0
LINE
5
90
100
AcDbEntity
8
roadways
6
CONTINUOUS
62
0
370
50
100
AcDbLine
10
648.448
20
678.784
11
645.8
21
677.6
0
LINE
5
91
100
AcDbEntity
8
roadways
6
CONTINUOUS
62
0
370
50
100
AcDbLine
10
607.488
20
634.112
11
648.96
21
655.616
0
MTEXT
5
92
100
AcDbEntity
8
roadways
6
CONTINUOUS
62
0
370
50
100
AcDbMText
10
626.953125
20
632.8125
30
0
40
8
41
29.3333386667
71
1
72
1
1
Clinic
7
romans
210
0
220
0
230
1
50
0
73
2
44
1
0
LINE
5
93
100
AcDbEntity
8
features
6
CONTINUOUS
62
56
420
8421376
370
100
100
AcDbLine
10
568.328192
20
554.8539904
11
576.454656
21
554.7491328
0
LINE
5
94
100
AcDbEntity
8
features
6
CONTINUOUS
62
56
420
8421376
370
100
100
AcDbLine
10
576.454656
20
554.7491328
11
576.6643712
21
563.0328832
0
LINE
5
95
100
AcDbEntity
8
features
6
CONTINUOUS
62
56
420
8421376
370
100
100
AcDbLine
10
576.6643712
20
563.0328832
11
571.04
21
559.52
0
LINE
5
96
100
AcDbEntity
8
features
6
CONTINUOUS
62
56
420
8421376
370
100
100
AcDbLine
10
571.04
20
559.52
11
568.328192
21
554.8539904
0
LINE
5
97
100
AcDbEntity
8
features
6
CONTINUOUS
62
56
420
8421376
370
100
100
AcDbLine
10
607.36
20
664.16
11
616.5504
21
669.0816
0
LINE
5
98
100
AcDbEntity
8
features
6
CONTINUOUS
62
56
420
8421376
370
100
100
AcDbLine
10
616.5504
20
669.0816
11
606.3104
21
673.0752
0
LINE
5
99
100
AcDbEntity
8
features
6
CONTINUOUS
62
56
420
8421376
370
100
100
AcDbLine
10
606.3104
20
673.0752
11
607.36
21
664.16
0
LINE
5
9A
100
AcDbEntity
8
features
6
CONTINUOUS
62
56
420
8421376
370
100
100
AcDbLine
10
632.64
20
774.24
11
636.928
21
766.592
0
LINE
5
9B
100
AcDbEntity
8
features
6
CONTINUOUS
62
56
420
8421376
370
100
100
AcDbLine
10
636.928
20
766.592
11
629.76
21
768
0
LINE
5
9C
100
AcDbEntity
8
features
6
CONTINUOUS
62
56
420
8421376
370
100
100
AcDbLine
10
629.76
20
768
11
627.328
21
774.4
0
LINE
5
9D
100
AcDbEntity
8
features
6
CONTINUOUS
62
56
420
8421376
370
100
100
AcDbLine
10
627.328
20
774.4
11
632.64
21
774.24
0
CIRCLE
5
9E
100
AcDbEntity
8
features
6
CONTINUOUS
62
4
370
100
100
AcDbCircle
10
562.4
20
592.48
40
2.58487910742
0
CIRCLE
5
9F
100
AcDbEntity
8
features
6
CONTINUOUS
62
4
370
100
100
AcDbCircle
10
552.5
20
501.25
40
2.82980785567
0
CIRCLE
5
A0
100
AcDbEntity
8
features
6
CONTINUOUS
62
4
370
100
100
AcDbCircle
10
646.84032
20
648.56064
40
2.04963774516
0
CIRCLE
5
A1
100
AcDbEntity
8
features
6
CONTINUOUS
62
4
370
100
100
AcDbCircle
10
615
20
752.5
40
2.5
0
CIRCLE
5
A2
100
AcDbEntity
8
features
6
CONTINUOUS
62
4
370
100
100
AcDbCircle
10
630.528
20
542.848
40
2.06393798356
0
LINE
5
A3
100
AcDbEntity
8
roadways
6
CONTINUOUS
62
0
370
50
100
AcDbLine
10
601.76
20
631.84
11
567.2
21
616.8
0
LINE
5
A4
100
AcDbEntity
8
roadways
6
CONTINUOUS
62
0
370
50
100
AcDbLine
10
567.2
20
616.8
11
565.76
21
635.68
0
MTEXT
5
A5
100
AcDbEntity
8
roadways
6
CONTINUOUS
62
0
370
50
100
AcDbMText
10
554.375
20
615.9375
30
0
40
8
41
40.0000088889
71
1
72
1
1
Creche
7
romans
210
0
220
0
230
1
50
0
73
2
44
1
0
LINE
5
A6
100
AcDbEntity
8
roadways
6
CONTINUOUS
62
176
420
128
370
90
100
AcDbLine
10
622.4
20
536.32
11
630.24
21
536.32
0
LINE
5
A7
100
AcDbEntity
8
roadways
6
CONTINUOUS
62
176
420
128
370
90
100
AcDbLine
10
630.24
20
536.32
11
630.24
21
531.84
0
LINE
5
A8
100
AcDbEntity
8
roadways
6
CONTINUOUS
62
176
420
128
370
90
100
AcDbLine
10
630.24
20
531.84
11
622.4
21
531.84
0
LINE
5
A9
100
AcDbEntity
8
roadways
6
CONTINUOUS
62
176
420
128
370
90
100
AcDbLine
10
622.4
20
531.84
11
622.4
21
536.32
0
LINE
5
AA
100
AcDbEntity
8
roadways
6
CONTINUOUS
62
176
420
128
370
90
100
AcDbLine
10
558.4
20
508.8
11
568.32
21
508.8
0
LINE
5
AB
100
AcDbEntity
8
roadways
6
CONTINUOUS
62
176
420
128
370
90
100
AcDbLine
10
568.32
20
508.8
11
568.32
21
504.48
0
LINE
5
AC
100
AcDbEntity
8
roadways
6
CONTINUOUS
62
176
420
128
370
90
100
AcDbLine
10
568.32
20
504.48
11
558.4
21
504.48
0
LINE
5
AD
100
AcDbEntity
8
roadways
6
CONTINUOUS
62
176
420
128
370
90
100
AcDbLine
10
558.4
20
504.48
11
558.4
21
508.8
0
LINE
5
AE
100
AcDbEntity
8
roadways
6
CONTINUOUS
62
176
420
128
370
90
100
AcDbLine
10
561.536
20
602.752
11
570.752
21
602.752
0
LINE
5
AF
100
AcDbEntity
8
roadways
6
CONTINUOUS
62
176
420
128
370
90
100
AcDbLine
10
570.752
20
602.752
11
570.752
21
598.144
0
LINE
5
B0
100
AcDbEntity
8
roadways
6
CONTINUOUS
62
176
420
128
370
90
100
AcDbLine
10
570.752
20
598.144
11
561.536
21
598.144
0
LINE
5
B1
100
AcDbEntity
8
roadways
6
CONTINUOUS
62
176
420
128
370
90
100
AcDbLine
10
561.536
20
598.144
11
561.536
21
602.752
0
LINE
5
B2
100
AcDbEntity
8
roadways
6
CONTINUOUS
62
176
420
128
370
90
100
AcDbLine
10
648.064
20
644.096
11
654.464
21
644.096
0
LINE
5
B3
100
AcDbEntity
8
roadways
6
CONTINUOUS
62
176
420
128
370
90
100
AcDbLine
10
654.464
20
644.096
11
654.464
21
637.184
0
LINE
5
B4
100
AcDbEntity
8
roadways
6
CONTINUOUS
62
176
420
128
370
90
100
AcDbLine
10
654.464
20
637.184
11
648.064
21
637.184
0
LINE
5
B5
100
AcDbEntity
8
roadways
6
CONTINUOUS
62
176
420
128
370
90
100
AcDbLine
10
648.064
20
637.184
11
648.064
21
644.096
0
LINE
5
B6
100
AcDbEntity
8
roadways
6
CONTINUOUS
62
176
420
128
370
90
100
AcDbLine
10
610.56
20
745.92
11
618.24
21
745.92
0
LINE
5
B7
100
AcDbEntity
8
roadways
6
CONTINUOUS
62
176
420
128
370
90
100
AcDbLine
10
618.24
20
745.92
11
618.24
21
737.28
0
LINE
5
B8
100
AcDbEntity
8
roadways
6
CONTINUOUS
62
176
420
128
370
90
100
AcDbLine
10
618.24
20
737.28
11
610.56
21
737.28
0
LINE
5
B9
100
AcDbEntity
8
roadways
6
CONTINUOUS
62
176
420
128
370
90
100
AcDbLine
10
610.56
20
737.28
11
610.56
21
745.92
0
LINE
5
BA
100
AcDbEntity
8
roadways
6
CONTINUOUS
62
96
420
32768
370
30
100
AcDbLine
10
708.984375
20
624.0234375
11
781.73828125
21
624.0234375
0
LINE
5
BB
100
AcDbEntity
8
roadways
6
CONTINUOUS
62
96
420
32768
370
30
100
AcDbLine
10
781.73828125
20
624.0234375
11
782.2265625
21
540.0390625
0
LINE
5
BC
100
AcDbEntity
8
roadways
6
CONTINUOUS
62
96
420
32768
370
30
100
AcDbLine
10
782.2265625
20
540.0390625
11
707.03125
21
538.57421875
0
MTEXT
5
BD
100
AcDbEntity
8
roadways
6
CONTINUOUS
62
0
370
30
100
AcDbMText
10
738.76953125
20
601.5625
30
0
40
8
41
25.523816
71
1
72
1
1
Field
7
romans
210
0
220
0
230
1
50
0
73
2
44
1
0
CIRCLE
5
BE
100
AcDbEntity
8
0
6
ByLayer
62
4
370
90
100
AcDbCircle
10
738.25
20
700.5
40
3.36340601177
0
LINE
5
BF
100
AcDbEntity
8
0
6
ByLayer
62
176
420
128
370
90
100
AcDbLine
10
733
20
694
11
741.75
21
694
0
LINE
5
C0
100
AcDbEntity
8
0
6
ByLayer
62
176
420
128
370
90
100
AcDbLine
10
741.75
20
694
11
741.75
21
688.75
0
LINE
5
C1
100
AcDbEntity
8
0
6
ByLayer
62
176
420
128
370
90
100
AcDbLine
10
741.75
20
688.75
11
733
21
688.75
0
LINE
5
C2
100
AcDbEntity
8
0
6
ByLayer
62
176
420
128
370
90
100
AcDbLine
10
733
20
688.75
11
733
21
694
0
LINE
5
C3
100
AcDbEntity
8
0
6
ByLayer
62
56
420
8421376
370
90
100
AcDbLine
10
733
20
685.5
11
742
21
685.5
0
LINE
5
C4
100
AcDbEntity
8
0
6
ByLayer
62
56
420
8421376
370
90
100
AcDbLine
10
742
20
685.5
11
742
21
680.25
0
LINE
5
C5
100
AcDbEntity
8
0
6
ByLayer
62
56
420
8421376
370
90
100
AcDbLine
10
742
20
680.25
11
733
21
680.25
0
LINE
5
C6
100
AcDbEntity
8
0
6
ByLayer
62
56
420
8421376
370
90
100
AcDbLine
10
733
20
680.25
11
733
21
685.5
0
MTEXT
5
C7
100
AcDbEntity
8
0
6
ByLayer
62
256
370
90
100
AcDbMText
10
749.5
20
704.75
30
0
40
6
41
53.3571486667
71
1
72
1
1
Water Point
7
romans
210
0
220
0
230
1
50
0
73
2
44
1
0
MTEXT
5
C8
100
AcDbEntity
8
0
6
ByLayer
62
256
370
90
100
AcDbMText
10
749.75
20
694.25
30
0
40
6
41
63.6428686667
71
1
72
1
1
Ablution Block
7
romans
210
0
220
0
230
1
50
0
73
2
44
1
0
MTEXT
5
C9
100
AcDbEntity
8
0
6
ByLayer
62
256
370
90
100
AcDbMText
10
750
20
684.75
30
0
40
6
41
97.2857286667
71
1
72
1
1
Waste Collection SIte
7
romans
210
0
220
0
230
1
50
0
73
2
44
1
0
LINE
5
CA
100
AcDbEntity
8
0
6
ByLayer
62
256
370
90
100
AcDbLine
10
798.4375
20
780.46875
11
798.4375
21
731.25
0
LINE
5
CB
100
AcDbEntity
8
0
6
ByLayer
62
256
370
90
100
AcDbLine
10
798.4375
20
780.46875
11
788.671875
21
769.921875
0
LINE
5
CC
100
AcDbEntity
8
0
6
ByLayer
62
256
370
90
100
AcDbLine
10
788.671875
20
769.921875
11
809.765625
21
769.53125
0
LINE
5
CD
100
AcDbEntity
8
0
6
ByLayer
62
256
370
90
100
AcDbLine
10
809.765625
20
769.53125
11
798.4375
21
780.46875
0
MTEXT
5
CE
100
AcDbEntity
8
0
6
ByLayer
62
256
370
90
100
AcDbMText
10
810.15625
20
739.84375
30
0
40
6
41
23.4285733333
71
1
72
1
1
North
7
romans
210
0
220
0
230
1
50
0
73
2
44
1
0
ENDSEC
0
SECTION
2
OBJECTS
0
DICTIONARY
5
C
330
0
100
AcDbDictionary
281
1
3
ACAD_GROUP
350
D
3
ACAD_IMAGE_DICT
350
CF
0
DICTIONARY
5
D
330
C
100
AcDbDictionary
281
1
0
IMAGEDEF_REACTOR
5
4C
330
4D
100
AcDbRasterImageDefReactor
90
2
330
4D
0
DICTIONARY
5
CF
330
C
100
AcDbDictionary
281
1
3
Skandaalkamp+Aerial+Photo
350
4B
0
IMAGEDEF
5
4B
102
{ACAD_REACTORS
330
4C
102
}
100
AcDbRasterImageDef
90
0
1
/home/jason/Downloads/Skandaalkamp+Aerial+Photo.tif
10
1007
20
1082
11
1
21
1
280
1
281
0
0
ENDSEC
0
EOF
